<?xml version="1.0" standalone="no"?><!DOCTYPE svg PUBLIC "-//W3C//DTD SVG 1.1//EN" "http://www.w3.org/Graphics/SVG/1.1/DTD/svg11.dtd"><svg class="icon" width="200px" height="200.00px" viewBox="0 0 1024 1024" version="1.1" xmlns="http://www.w3.org/2000/svg"><path fill="#d81e06" d="M590.592 648.96a19.968 19.968 0 0 1-21.76-22.272 20.736 20.736 0 0 1 21.76-22.528c96 0 158.208-17.664 175.616-51.2a20.48 20.48 0 0 1 19.712-13.312 21.504 21.504 0 0 1 8.96 1.792 22.528 22.528 0 0 1 9.984 29.184c-31.488 67.072-141.824 76.8-204.8 76.8z"  /><path fill="#d81e06" d="M149.76 610.048A19.968 19.968 0 0 1 128 588.8v-136.448a32.256 32.256 0 0 1 9.728-18.944l19.456-13.312v-2.304c11.008-186.88 159.744-332.8 338.432-332.8a342.784 342.784 0 0 1 336.896 322.816v4.608l2.304 3.328 43.52 16.896a24.064 24.064 0 0 1 16.64 17.664v134.912a20.992 20.992 0 0 1-21.76 22.528 20.224 20.224 0 0 1-22.016-22.528v-117.248l-46.848-18.432a21.248 21.248 0 0 1-15.616-19.968A296.96 296.96 0 0 0 496.384 129.536 296.96 296.96 0 0 0 203.264 429.568a32.512 32.512 0 0 1-9.728 22.272l-19.712 13.312L171.776 588.8a20.736 20.736 0 0 1-22.016 21.248z"  /><path fill="#d81e06" d="M179.2 935.68a20.736 20.736 0 0 1-11.52-8.192 25.6 25.6 0 0 1-4.096-18.944 313.856 313.856 0 0 1 207.872-240.896l17.92-6.144-15.872-11.008a237.312 237.312 0 0 1-105.984-198.144 233.216 233.216 0 0 1 233.728-237.824 235.776 235.776 0 0 1 232.448 238.336 305.152 305.152 0 0 1-6.144 49.664 22.528 22.528 0 0 1-22.016 18.432h-4.352a20.224 20.224 0 0 1-13.568-8.704 25.6 25.6 0 0 1-4.096-18.944 179.2 179.2 0 0 0 3.072-40.448 192 192 0 0 0-189.44-193.792 193.792 193.792 0 0 0 0 387.328 25.6 25.6 0 0 1 25.6 24.32 20.48 20.48 0 0 1-22.016 20.48c-149.248 0-267.008 91.392-293.12 227.328a21.248 21.248 0 0 1-22.016 17.664zM842.24 939.264A20.992 20.992 0 0 1 819.2 921.6a298.752 298.752 0 0 0-116.736-179.2 18.688 18.688 0 0 1-8.448-12.288 25.6 25.6 0 0 1 4.096-19.712 17.92 17.92 0 0 1 16.128-8.96 25.6 25.6 0 0 1 14.08 4.608 341.248 341.248 0 0 1 134.912 206.848 25.6 25.6 0 0 1-16.896 27.392z"  /></svg>