<?xml version="1.0" standalone="no"?><!DOCTYPE svg PUBLIC "-//W3C//DTD SVG 1.1//EN" "http://www.w3.org/Graphics/SVG/1.1/DTD/svg11.dtd"><svg class="icon" width="200px" height="197.68px" viewBox="0 0 1036 1024" version="1.1" xmlns="http://www.w3.org/2000/svg"><path fill="#515151" d="M995.392873 1024H40.770788A41.671799 41.671799 0 0 1 0 983.454465c0-138.530576 64.647602-220.74791 197.546854-251.382314 126.366916-29.282886 181.779147-100.237571 184.031677-103.391113a78.613286 78.613286 0 0 0 6.307083-40.320281 65.773867 65.773867 0 0 0-2.928289-9.235372l-2.027277-7.208095-4.730312-8.784866c-2.928289-8.784866-16.66872-39.644523-27.931368-61.944567l-2.477783-5.631324a72.756709 72.756709 0 0 0-6.532336-8.33436 162.857897 162.857897 0 0 1-45.050594-45.050594 103.616366 103.616366 0 0 1 5.406071-124.790145 356.350198 356.350198 0 0 1-16.443466-141.458865C290.576331 91.452706 366.036076 0 519.883854 0c163.758909 0 229.758029 105.41839 233.812582 176.147822a373.469424 373.469424 0 0 1-16.218213 143.936648 93.705235 93.705235 0 0 1 5.856577 122.312362l-1.351518 1.802024A229.307523 229.307523 0 0 1 698.284206 486.771667c-2.703036 2.928289-4.955565 6.307083-6.532336 8.33436V495.556533l-2.25253 4.730313c-6.982842 13.515178-15.317202 32.886934-21.399032 47.07787-3.604048 8.33436-6.307083 15.091949-7.883854 17.794985l-3.604047 7.208095a56.087989 56.087989 0 0 0-4.955566 15.091949 69.152662 69.152662 0 0 0 6.532336 40.545534 348.015838 348.015838 0 0 0 185.383194 103.16586c135.151782 30.183898 192.591289 105.41839 192.591289 251.382315a41.671799 41.671799 0 0 1-40.770787 41.446546zM45.050594 978.949406h946.062472c-1.351518-139.882094-61.268808-181.328641-157.677078-202.727673-144.387154-33.562692-208.58425-116.455785-211.287286-120.059832a104.742631 104.742631 0 0 1-15.542455-67.575891 85.145623 85.145623 0 0 1 9.911131-35.364717l3.604047-7.208095c0-2.25253 3.604048-8.109107 6.75759-15.317202 5.856577-13.965684 13.965684-32.886934 21.173779-47.303123a83.568852 83.568852 0 0 1 20.047514-29.733392l3.378795-2.928289a180.202376 180.202376 0 0 0 34.463704-34.238451c22.525297-34.91421 7.208095-59.692037-5.856577-68.927409l-9.685878-6.757589v-22.525297l1.351518-3.8293a325.715794 325.715794 0 0 0 17.119225-135.151782C705.492301 125.015398 653.233612 45.050594 519.883854 45.050594c-143.486142 0-186.509459 87.398152-188.987242 133.800264a296.883414 296.883414 0 0 0 16.66872 130.871975l1.576771 4.054554v22.525297l-7.883854 6.757589a56.313242 56.313242 0 0 0-6.307083 75.910251 112.626485 112.626485 0 0 0 33.112186 31.535415l3.378795 2.928289a83.568852 83.568852 0 0 1 20.047514 29.733392c10.136384 20.047514 23.876815 50.456665 28.83238 63.971843l4.279807 8.784866 3.378794 7.208095a72.531456 72.531456 0 0 1 5.631325 24.777827 109.472943 109.472943 0 0 1-15.542455 67.575891c-2.703036 3.604048-67.575891 87.172899-209.710515 120.059832-111.725473 26.129344-161.956885 88.74967-163.308403 203.403432z"  /></svg>